<mxfile host="Electron" agent="Mozilla/5.0 (Windows NT 10.0; Win64; x64) AppleWebKit/537.36 (KHTML, like Gecko) draw.io/26.2.15 Chrome/134.0.6998.205 Electron/35.2.1 Safari/537.36" version="26.2.15">
  <diagram name="Page-1" id="hnfMHn1mykD2UUGemqTV">
    <mxGraphModel dx="2778" dy="2109" grid="1" gridSize="10" guides="1" tooltips="1" connect="1" arrows="1" fold="1" page="1" pageScale="1" pageWidth="827" pageHeight="1169" math="0" shadow="0">
      <root>
        <mxCell id="0" />
        <mxCell id="1" parent="0" />
        <mxCell id="CkyMMpfJ883GypdnXkTS-9" value="&lt;div&gt;&lt;b&gt;FuelStation&lt;/b&gt;&lt;/div&gt;" style="whiteSpace=wrap;html=1;align=center;" parent="1" vertex="1">
          <mxGeometry x="-270" y="-20" width="100" height="40" as="geometry" />
        </mxCell>
        <mxCell id="CkyMMpfJ883GypdnXkTS-10" value="&lt;div&gt;Restock&lt;/div&gt;" style="whiteSpace=wrap;html=1;align=center;" parent="1" vertex="1">
          <mxGeometry x="-240" y="230" width="100" height="40" as="geometry" />
        </mxCell>
        <mxCell id="CkyMMpfJ883GypdnXkTS-11" value="&lt;div&gt;&lt;b&gt;Tank&lt;/b&gt;&lt;/div&gt;" style="whiteSpace=wrap;html=1;align=center;" parent="1" vertex="1">
          <mxGeometry x="20" y="-40" width="100" height="40" as="geometry" />
        </mxCell>
        <mxCell id="CkyMMpfJ883GypdnXkTS-13" value="&lt;div&gt;&lt;b&gt;Sale&lt;/b&gt;&lt;/div&gt;" style="whiteSpace=wrap;html=1;align=center;" parent="1" vertex="1">
          <mxGeometry x="500" y="-20" width="100" height="40" as="geometry" />
        </mxCell>
        <mxCell id="CkyMMpfJ883GypdnXkTS-14" value="&lt;div&gt;&lt;strong&gt;Supplier&lt;/strong&gt;&lt;/div&gt;" style="whiteSpace=wrap;html=1;align=center;" parent="1" vertex="1">
          <mxGeometry x="314" y="240" width="100" height="40" as="geometry" />
        </mxCell>
        <mxCell id="CkyMMpfJ883GypdnXkTS-15" value="&lt;div&gt;Name&lt;/div&gt;" style="ellipse;whiteSpace=wrap;html=1;align=center;" parent="1" vertex="1">
          <mxGeometry x="-410" y="-90" width="100" height="40" as="geometry" />
        </mxCell>
        <mxCell id="CkyMMpfJ883GypdnXkTS-16" value="&lt;div&gt;Location&lt;/div&gt;" style="ellipse;whiteSpace=wrap;html=1;align=center;" parent="1" vertex="1">
          <mxGeometry x="-420" y="60" width="100" height="40" as="geometry" />
        </mxCell>
        <mxCell id="CkyMMpfJ883GypdnXkTS-17" value="&lt;div&gt;StationID&lt;/div&gt;" style="ellipse;whiteSpace=wrap;html=1;align=center;fontStyle=4;" parent="1" vertex="1">
          <mxGeometry x="-420" y="-20" width="100" height="40" as="geometry" />
        </mxCell>
        <mxCell id="CkyMMpfJ883GypdnXkTS-20" value="" style="endArrow=none;html=1;rounded=0;exitX=0;exitY=0;exitDx=0;exitDy=0;entryX=1;entryY=0.5;entryDx=0;entryDy=0;" parent="1" source="CkyMMpfJ883GypdnXkTS-9" target="CkyMMpfJ883GypdnXkTS-15" edge="1">
          <mxGeometry relative="1" as="geometry">
            <mxPoint x="250" y="150" as="sourcePoint" />
            <mxPoint x="410" y="150" as="targetPoint" />
            <Array as="points" />
          </mxGeometry>
        </mxCell>
        <mxCell id="CkyMMpfJ883GypdnXkTS-21" value="" style="endArrow=none;html=1;rounded=0;exitX=0;exitY=0.5;exitDx=0;exitDy=0;entryX=1;entryY=0.5;entryDx=0;entryDy=0;" parent="1" source="CkyMMpfJ883GypdnXkTS-9" target="CkyMMpfJ883GypdnXkTS-17" edge="1">
          <mxGeometry relative="1" as="geometry">
            <mxPoint x="250" y="150" as="sourcePoint" />
            <mxPoint x="410" y="150" as="targetPoint" />
          </mxGeometry>
        </mxCell>
        <mxCell id="CkyMMpfJ883GypdnXkTS-23" value="" style="endArrow=none;html=1;rounded=0;exitX=0;exitY=1;exitDx=0;exitDy=0;" parent="1" source="CkyMMpfJ883GypdnXkTS-9" target="CkyMMpfJ883GypdnXkTS-16" edge="1">
          <mxGeometry relative="1" as="geometry">
            <mxPoint x="250" y="150" as="sourcePoint" />
            <mxPoint x="410" y="150" as="targetPoint" />
          </mxGeometry>
        </mxCell>
        <mxCell id="CkyMMpfJ883GypdnXkTS-26" value="&lt;div&gt;StationID&lt;/div&gt;" style="ellipse;whiteSpace=wrap;html=1;align=center;" parent="1" vertex="1">
          <mxGeometry x="-100" y="-170" width="100" height="40" as="geometry" />
        </mxCell>
        <mxCell id="CkyMMpfJ883GypdnXkTS-27" value="&lt;div&gt;CurrentLevel&lt;/div&gt;" style="ellipse;whiteSpace=wrap;html=1;align=center;" parent="1" vertex="1">
          <mxGeometry x="-150" y="-100" width="100" height="40" as="geometry" />
        </mxCell>
        <mxCell id="CkyMMpfJ883GypdnXkTS-28" value="&lt;div&gt;FuelType&lt;/div&gt;" style="ellipse;whiteSpace=wrap;html=1;align=center;" parent="1" vertex="1">
          <mxGeometry x="170" y="-160" width="100" height="40" as="geometry" />
        </mxCell>
        <mxCell id="CkyMMpfJ883GypdnXkTS-29" value="&lt;div&gt;Capacity&lt;/div&gt;" style="ellipse;whiteSpace=wrap;html=1;align=center;" parent="1" vertex="1">
          <mxGeometry x="200" y="-100" width="100" height="40" as="geometry" />
        </mxCell>
        <mxCell id="CkyMMpfJ883GypdnXkTS-41" value="" style="endArrow=none;html=1;rounded=0;exitX=0.7;exitY=1;exitDx=0;exitDy=0;entryX=0.25;entryY=0;entryDx=0;entryDy=0;exitPerimeter=0;" parent="1" source="CkyMMpfJ883GypdnXkTS-26" target="CkyMMpfJ883GypdnXkTS-11" edge="1">
          <mxGeometry relative="1" as="geometry">
            <mxPoint x="-30" y="-60" as="sourcePoint" />
            <mxPoint x="130" y="-60" as="targetPoint" />
          </mxGeometry>
        </mxCell>
        <mxCell id="CkyMMpfJ883GypdnXkTS-43" value="" style="endArrow=none;html=1;rounded=0;exitX=0.4;exitY=0.975;exitDx=0;exitDy=0;exitPerimeter=0;entryX=0.5;entryY=0;entryDx=0;entryDy=0;" parent="1" target="CkyMMpfJ883GypdnXkTS-11" edge="1">
          <mxGeometry relative="1" as="geometry">
            <mxPoint x="60" y="-131" as="sourcePoint" />
            <mxPoint x="130" y="-60" as="targetPoint" />
          </mxGeometry>
        </mxCell>
        <mxCell id="CkyMMpfJ883GypdnXkTS-44" value="" style="endArrow=none;html=1;rounded=0;exitX=0;exitY=0.5;exitDx=0;exitDy=0;entryX=1;entryY=0;entryDx=0;entryDy=0;" parent="1" source="CkyMMpfJ883GypdnXkTS-28" target="CkyMMpfJ883GypdnXkTS-11" edge="1">
          <mxGeometry relative="1" as="geometry">
            <mxPoint x="-30" y="-60" as="sourcePoint" />
            <mxPoint x="130" y="-60" as="targetPoint" />
          </mxGeometry>
        </mxCell>
        <mxCell id="CkyMMpfJ883GypdnXkTS-46" value="" style="endArrow=none;html=1;rounded=0;entryX=0;entryY=0.5;entryDx=0;entryDy=0;exitX=1;exitY=0.5;exitDx=0;exitDy=0;" parent="1" source="CkyMMpfJ883GypdnXkTS-11" target="CkyMMpfJ883GypdnXkTS-29" edge="1">
          <mxGeometry relative="1" as="geometry">
            <mxPoint x="120" y="-70" as="sourcePoint" />
            <mxPoint x="130" y="-60" as="targetPoint" />
          </mxGeometry>
        </mxCell>
        <mxCell id="CkyMMpfJ883GypdnXkTS-47" value="&lt;div&gt;QuantitySold&lt;/div&gt;" style="ellipse;whiteSpace=wrap;html=1;align=center;" parent="1" vertex="1">
          <mxGeometry x="650" y="10" width="100" height="40" as="geometry" />
        </mxCell>
        <mxCell id="CkyMMpfJ883GypdnXkTS-48" value="&lt;div&gt;TankID&lt;/div&gt;" style="ellipse;whiteSpace=wrap;html=1;align=center;" parent="1" vertex="1">
          <mxGeometry x="640" y="-100" width="100" height="40" as="geometry" />
        </mxCell>
        <mxCell id="CkyMMpfJ883GypdnXkTS-49" value="&lt;div&gt;DateTime&lt;/div&gt;" style="ellipse;whiteSpace=wrap;html=1;align=center;" parent="1" vertex="1">
          <mxGeometry x="500" y="-110" width="100" height="40" as="geometry" />
        </mxCell>
        <mxCell id="CkyMMpfJ883GypdnXkTS-50" value="&lt;div&gt;TotalAmount&lt;/div&gt;" style="ellipse;whiteSpace=wrap;html=1;align=center;" parent="1" vertex="1">
          <mxGeometry x="600" y="-160" width="100" height="40" as="geometry" />
        </mxCell>
        <mxCell id="CkyMMpfJ883GypdnXkTS-51" value="&lt;div&gt;SaleID&lt;/div&gt;" style="ellipse;whiteSpace=wrap;html=1;align=center;fontStyle=4;" parent="1" vertex="1">
          <mxGeometry x="650" y="-40" width="100" height="40" as="geometry" />
        </mxCell>
        <mxCell id="CkyMMpfJ883GypdnXkTS-53" value="TankID" style="ellipse;whiteSpace=wrap;html=1;align=center;fontStyle=4;" parent="1" vertex="1">
          <mxGeometry x="20" y="-170" width="100" height="40" as="geometry" />
        </mxCell>
        <mxCell id="CkyMMpfJ883GypdnXkTS-55" value="" style="endArrow=none;html=1;rounded=0;entryX=0;entryY=0.5;entryDx=0;entryDy=0;exitX=1;exitY=0.5;exitDx=0;exitDy=0;" parent="1" source="CkyMMpfJ883GypdnXkTS-13" target="CkyMMpfJ883GypdnXkTS-51" edge="1">
          <mxGeometry relative="1" as="geometry">
            <mxPoint x="260" y="-50" as="sourcePoint" />
            <mxPoint x="420" y="-50" as="targetPoint" />
          </mxGeometry>
        </mxCell>
        <mxCell id="CkyMMpfJ883GypdnXkTS-56" value="" style="endArrow=none;html=1;rounded=0;entryX=0;entryY=0.5;entryDx=0;entryDy=0;exitX=1;exitY=0;exitDx=0;exitDy=0;" parent="1" source="CkyMMpfJ883GypdnXkTS-13" target="CkyMMpfJ883GypdnXkTS-48" edge="1">
          <mxGeometry relative="1" as="geometry">
            <mxPoint x="260" y="-50" as="sourcePoint" />
            <mxPoint x="420" y="-50" as="targetPoint" />
          </mxGeometry>
        </mxCell>
        <mxCell id="CkyMMpfJ883GypdnXkTS-57" value="" style="endArrow=none;html=1;rounded=0;entryX=0.5;entryY=1;entryDx=0;entryDy=0;exitX=0.5;exitY=0;exitDx=0;exitDy=0;" parent="1" source="CkyMMpfJ883GypdnXkTS-13" target="CkyMMpfJ883GypdnXkTS-49" edge="1">
          <mxGeometry relative="1" as="geometry">
            <mxPoint x="260" y="-50" as="sourcePoint" />
            <mxPoint x="420" y="-50" as="targetPoint" />
          </mxGeometry>
        </mxCell>
        <mxCell id="CkyMMpfJ883GypdnXkTS-58" value="" style="endArrow=none;html=1;rounded=0;entryX=0;entryY=1;entryDx=0;entryDy=0;exitX=0.75;exitY=0;exitDx=0;exitDy=0;" parent="1" source="CkyMMpfJ883GypdnXkTS-13" target="CkyMMpfJ883GypdnXkTS-50" edge="1">
          <mxGeometry relative="1" as="geometry">
            <mxPoint x="260" y="-50" as="sourcePoint" />
            <mxPoint x="420" y="-50" as="targetPoint" />
          </mxGeometry>
        </mxCell>
        <mxCell id="CkyMMpfJ883GypdnXkTS-59" value="" style="endArrow=none;html=1;rounded=0;entryX=0;entryY=0.5;entryDx=0;entryDy=0;exitX=1;exitY=1;exitDx=0;exitDy=0;" parent="1" source="CkyMMpfJ883GypdnXkTS-13" target="CkyMMpfJ883GypdnXkTS-47" edge="1">
          <mxGeometry relative="1" as="geometry">
            <mxPoint x="260" y="-50" as="sourcePoint" />
            <mxPoint x="420" y="-50" as="targetPoint" />
          </mxGeometry>
        </mxCell>
        <mxCell id="CkyMMpfJ883GypdnXkTS-60" value="Attribute" style="ellipse;whiteSpace=wrap;html=1;align=center;" parent="1" vertex="1">
          <mxGeometry x="230" y="330" width="100" height="40" as="geometry" />
        </mxCell>
        <mxCell id="CkyMMpfJ883GypdnXkTS-61" value="Attribute" style="ellipse;whiteSpace=wrap;html=1;align=center;" parent="1" vertex="1">
          <mxGeometry x="440" y="240" width="100" height="40" as="geometry" />
        </mxCell>
        <mxCell id="CkyMMpfJ883GypdnXkTS-62" value="Attribute" style="ellipse;whiteSpace=wrap;html=1;align=center;fontStyle=4;" parent="1" vertex="1">
          <mxGeometry x="390" y="340" width="100" height="40" as="geometry" />
        </mxCell>
        <mxCell id="CkyMMpfJ883GypdnXkTS-63" value="" style="endArrow=none;html=1;rounded=0;entryX=0;entryY=0.5;entryDx=0;entryDy=0;exitX=1;exitY=0.5;exitDx=0;exitDy=0;" parent="1" source="CkyMMpfJ883GypdnXkTS-14" target="CkyMMpfJ883GypdnXkTS-61" edge="1">
          <mxGeometry relative="1" as="geometry">
            <mxPoint x="250" y="290" as="sourcePoint" />
            <mxPoint x="410" y="290" as="targetPoint" />
          </mxGeometry>
        </mxCell>
        <mxCell id="CkyMMpfJ883GypdnXkTS-64" value="" style="endArrow=none;html=1;rounded=0;entryX=0.5;entryY=0;entryDx=0;entryDy=0;exitX=0.5;exitY=1;exitDx=0;exitDy=0;" parent="1" source="CkyMMpfJ883GypdnXkTS-14" target="CkyMMpfJ883GypdnXkTS-62" edge="1">
          <mxGeometry relative="1" as="geometry">
            <mxPoint x="260" y="380" as="sourcePoint" />
            <mxPoint x="410" y="290" as="targetPoint" />
          </mxGeometry>
        </mxCell>
        <mxCell id="CkyMMpfJ883GypdnXkTS-65" value="" style="endArrow=none;html=1;rounded=0;exitX=1;exitY=0.5;exitDx=0;exitDy=0;entryX=0;entryY=0.5;entryDx=0;entryDy=0;" parent="1" source="CkyMMpfJ883GypdnXkTS-60" target="CkyMMpfJ883GypdnXkTS-14" edge="1">
          <mxGeometry relative="1" as="geometry">
            <mxPoint x="250" y="290" as="sourcePoint" />
            <mxPoint x="410" y="290" as="targetPoint" />
          </mxGeometry>
        </mxCell>
        <mxCell id="CkyMMpfJ883GypdnXkTS-67" value="&lt;div&gt;Quantity&lt;/div&gt;" style="ellipse;whiteSpace=wrap;html=1;align=center;" parent="1" vertex="1">
          <mxGeometry x="-500" y="260" width="100" height="40" as="geometry" />
        </mxCell>
        <mxCell id="CkyMMpfJ883GypdnXkTS-68" value="&lt;div&gt;Date&lt;/div&gt;" style="ellipse;whiteSpace=wrap;html=1;align=center;" parent="1" vertex="1">
          <mxGeometry x="-180" y="310" width="100" height="40" as="geometry" />
        </mxCell>
        <mxCell id="CkyMMpfJ883GypdnXkTS-69" value="&lt;div&gt;TankID&lt;/div&gt;" style="ellipse;whiteSpace=wrap;html=1;align=center;" parent="1" vertex="1">
          <mxGeometry x="-400" y="210" width="100" height="40" as="geometry" />
        </mxCell>
        <mxCell id="CkyMMpfJ883GypdnXkTS-70" value="&lt;div&gt;SupplierID&amp;nbsp;&lt;/div&gt;" style="ellipse;whiteSpace=wrap;html=1;align=center;" parent="1" vertex="1">
          <mxGeometry x="-410" y="300" width="100" height="40" as="geometry" />
        </mxCell>
        <mxCell id="CkyMMpfJ883GypdnXkTS-71" value="&lt;div&gt;RestockID&lt;/div&gt;" style="ellipse;whiteSpace=wrap;html=1;align=center;fontStyle=4;" parent="1" vertex="1">
          <mxGeometry x="-290" y="310" width="100" height="40" as="geometry" />
        </mxCell>
        <mxCell id="CkyMMpfJ883GypdnXkTS-72" value="" style="endArrow=none;html=1;rounded=0;exitX=0;exitY=0.75;exitDx=0;exitDy=0;entryX=1;entryY=0;entryDx=0;entryDy=0;" parent="1" source="CkyMMpfJ883GypdnXkTS-10" target="CkyMMpfJ883GypdnXkTS-67" edge="1">
          <mxGeometry relative="1" as="geometry">
            <mxPoint x="-70" y="100" as="sourcePoint" />
            <mxPoint x="-410" y="266" as="targetPoint" />
          </mxGeometry>
        </mxCell>
        <mxCell id="CkyMMpfJ883GypdnXkTS-73" value="" style="endArrow=none;html=1;rounded=0;exitX=0.4;exitY=0;exitDx=0;exitDy=0;exitPerimeter=0;" parent="1" source="CkyMMpfJ883GypdnXkTS-68" target="CkyMMpfJ883GypdnXkTS-10" edge="1">
          <mxGeometry relative="1" as="geometry">
            <mxPoint x="-70" y="100" as="sourcePoint" />
            <mxPoint x="90" y="100" as="targetPoint" />
          </mxGeometry>
        </mxCell>
        <mxCell id="CkyMMpfJ883GypdnXkTS-74" value="" style="endArrow=none;html=1;rounded=0;entryX=0.599;entryY=0.104;entryDx=0;entryDy=0;entryPerimeter=0;exitX=0.346;exitY=1.075;exitDx=0;exitDy=0;exitPerimeter=0;" parent="1" source="CkyMMpfJ883GypdnXkTS-10" target="CkyMMpfJ883GypdnXkTS-71" edge="1">
          <mxGeometry relative="1" as="geometry">
            <mxPoint x="-70" y="100" as="sourcePoint" />
            <mxPoint x="90" y="100" as="targetPoint" />
          </mxGeometry>
        </mxCell>
        <mxCell id="CkyMMpfJ883GypdnXkTS-75" value="" style="endArrow=none;html=1;rounded=0;entryX=1;entryY=0.5;entryDx=0;entryDy=0;exitX=0;exitY=1;exitDx=0;exitDy=0;" parent="1" source="CkyMMpfJ883GypdnXkTS-10" target="CkyMMpfJ883GypdnXkTS-70" edge="1">
          <mxGeometry relative="1" as="geometry">
            <mxPoint x="-70" y="100" as="sourcePoint" />
            <mxPoint x="90" y="100" as="targetPoint" />
          </mxGeometry>
        </mxCell>
        <mxCell id="CkyMMpfJ883GypdnXkTS-76" value="" style="endArrow=none;html=1;rounded=0;exitX=0;exitY=0.5;exitDx=0;exitDy=0;entryX=1;entryY=0.5;entryDx=0;entryDy=0;" parent="1" source="CkyMMpfJ883GypdnXkTS-10" target="CkyMMpfJ883GypdnXkTS-69" edge="1">
          <mxGeometry relative="1" as="geometry">
            <mxPoint x="-70" y="100" as="sourcePoint" />
            <mxPoint x="90" y="100" as="targetPoint" />
          </mxGeometry>
        </mxCell>
        <mxCell id="CkyMMpfJ883GypdnXkTS-79" value="" style="endArrow=none;html=1;rounded=0;exitX=1;exitY=0.5;exitDx=0;exitDy=0;entryX=0;entryY=0.5;entryDx=0;entryDy=0;" parent="1" source="CkyMMpfJ883GypdnXkTS-27" target="CkyMMpfJ883GypdnXkTS-11" edge="1">
          <mxGeometry relative="1" as="geometry">
            <mxPoint x="-180" y="90" as="sourcePoint" />
            <mxPoint x="-20" y="90" as="targetPoint" />
          </mxGeometry>
        </mxCell>
        <mxCell id="CkyMMpfJ883GypdnXkTS-80" value="&lt;b&gt;HAS&lt;/b&gt;" style="edgeStyle=entityRelationEdgeStyle;fontSize=12;html=1;endArrow=ERzeroToMany;endFill=1;rounded=0;exitX=1;exitY=0.5;exitDx=0;exitDy=0;entryX=0;entryY=1;entryDx=0;entryDy=0;" parent="1" source="CkyMMpfJ883GypdnXkTS-9" target="CkyMMpfJ883GypdnXkTS-11" edge="1">
          <mxGeometry width="100" height="100" relative="1" as="geometry">
            <mxPoint x="-50" y="60" as="sourcePoint" />
            <mxPoint x="50" y="-40" as="targetPoint" />
          </mxGeometry>
        </mxCell>
        <mxCell id="CkyMMpfJ883GypdnXkTS-86" value="&lt;b&gt;1&lt;/b&gt;" style="text;strokeColor=none;fillColor=none;spacingLeft=4;spacingRight=4;overflow=hidden;rotatable=0;points=[[0,0.5],[1,0.5]];portConstraint=eastwest;fontSize=12;whiteSpace=wrap;html=1;" parent="1" vertex="1">
          <mxGeometry x="-170" y="-20" width="40" height="30" as="geometry" />
        </mxCell>
        <mxCell id="CkyMMpfJ883GypdnXkTS-92" value="&lt;b&gt;MANY&lt;/b&gt;" style="text;strokeColor=none;fillColor=none;spacingLeft=4;spacingRight=4;overflow=hidden;rotatable=0;points=[[0,0.5],[1,0.5]];portConstraint=eastwest;fontSize=12;whiteSpace=wrap;html=1;" parent="1" vertex="1">
          <mxGeometry x="-45" y="-20" width="50" height="30" as="geometry" />
        </mxCell>
        <mxCell id="CkyMMpfJ883GypdnXkTS-96" value="" style="edgeStyle=entityRelationEdgeStyle;fontSize=12;html=1;endArrow=ERoneToMany;rounded=0;exitX=1;exitY=1;exitDx=0;exitDy=0;entryX=0;entryY=0.5;entryDx=0;entryDy=0;" parent="1" source="CkyMMpfJ883GypdnXkTS-11" target="CkyMMpfJ883GypdnXkTS-13" edge="1">
          <mxGeometry width="100" height="100" relative="1" as="geometry">
            <mxPoint x="290" y="190" as="sourcePoint" />
            <mxPoint x="390" y="90" as="targetPoint" />
          </mxGeometry>
        </mxCell>
        <mxCell id="CkyMMpfJ883GypdnXkTS-97" value="&lt;b&gt;SOLD IN&lt;/b&gt;" style="edgeLabel;html=1;align=center;verticalAlign=middle;resizable=0;points=[];" parent="CkyMMpfJ883GypdnXkTS-96" connectable="0" vertex="1">
          <mxGeometry x="-0.0072" y="-4" relative="1" as="geometry">
            <mxPoint as="offset" />
          </mxGeometry>
        </mxCell>
        <mxCell id="CkyMMpfJ883GypdnXkTS-98" value="&lt;b&gt;MANY&lt;/b&gt;" style="text;strokeColor=none;fillColor=none;spacingLeft=4;spacingRight=4;overflow=hidden;rotatable=0;points=[[0,0.5],[1,0.5]];portConstraint=eastwest;fontSize=12;whiteSpace=wrap;html=1;" parent="1" vertex="1">
          <mxGeometry x="440" y="-22.5" width="50" height="20" as="geometry" />
        </mxCell>
        <mxCell id="CkyMMpfJ883GypdnXkTS-99" value="1" style="text;strokeColor=none;fillColor=none;spacingLeft=4;spacingRight=4;overflow=hidden;rotatable=0;points=[[0,0.5],[1,0.5]];portConstraint=eastwest;fontSize=12;whiteSpace=wrap;html=1;" parent="1" vertex="1">
          <mxGeometry x="120" y="-25" width="20" height="25" as="geometry" />
        </mxCell>
        <mxCell id="CkyMMpfJ883GypdnXkTS-118" value="" style="edgeStyle=entityRelationEdgeStyle;fontSize=12;html=1;endArrow=ERoneToMany;rounded=0;exitX=0.5;exitY=1;exitDx=0;exitDy=0;entryX=1;entryY=0;entryDx=0;entryDy=0;" parent="1" source="CkyMMpfJ883GypdnXkTS-11" target="CkyMMpfJ883GypdnXkTS-10" edge="1">
          <mxGeometry width="100" height="100" relative="1" as="geometry">
            <mxPoint x="60" y="10" as="sourcePoint" />
            <mxPoint x="20" y="90" as="targetPoint" />
            <Array as="points">
              <mxPoint x="-130" y="120" />
              <mxPoint y="120" />
            </Array>
          </mxGeometry>
        </mxCell>
        <mxCell id="CkyMMpfJ883GypdnXkTS-119" value="&lt;div&gt;&lt;b&gt;RESTOCKED BY&lt;/b&gt;&lt;/div&gt;" style="edgeLabel;html=1;align=center;verticalAlign=middle;resizable=0;points=[];" parent="CkyMMpfJ883GypdnXkTS-118" connectable="0" vertex="1">
          <mxGeometry x="-0.0574" y="2" relative="1" as="geometry">
            <mxPoint as="offset" />
          </mxGeometry>
        </mxCell>
        <mxCell id="CkyMMpfJ883GypdnXkTS-120" value="&lt;b&gt;MANY&lt;/b&gt;" style="text;strokeColor=none;fillColor=none;spacingLeft=4;spacingRight=4;overflow=hidden;rotatable=0;points=[[0,0.5],[1,0.5]];portConstraint=eastwest;fontSize=12;whiteSpace=wrap;html=1;" parent="1" vertex="1">
          <mxGeometry x="-155" y="200" width="50" height="20" as="geometry" />
        </mxCell>
        <mxCell id="CkyMMpfJ883GypdnXkTS-121" value="&lt;b&gt;1&lt;/b&gt;" style="text;strokeColor=none;fillColor=none;spacingLeft=4;spacingRight=4;overflow=hidden;rotatable=0;points=[[0,0.5],[1,0.5]];portConstraint=eastwest;fontSize=12;whiteSpace=wrap;html=1;" parent="1" vertex="1">
          <mxGeometry x="5" y="10" width="20" height="20" as="geometry" />
        </mxCell>
        <mxCell id="CkyMMpfJ883GypdnXkTS-125" value="" style="edgeStyle=entityRelationEdgeStyle;fontSize=12;html=1;endArrow=ERoneToMany;rounded=0;exitX=0.75;exitY=1;exitDx=0;exitDy=0;entryX=0;entryY=0;entryDx=0;entryDy=0;" parent="1" source="CkyMMpfJ883GypdnXkTS-11" target="CkyMMpfJ883GypdnXkTS-14" edge="1">
          <mxGeometry width="100" height="100" relative="1" as="geometry">
            <mxPoint x="100" y="190" as="sourcePoint" />
            <mxPoint x="200" y="90" as="targetPoint" />
          </mxGeometry>
        </mxCell>
        <mxCell id="CkyMMpfJ883GypdnXkTS-126" value="&lt;div&gt;&lt;b&gt;SUPPLIES&lt;/b&gt;&lt;/div&gt;" style="edgeLabel;html=1;align=center;verticalAlign=middle;resizable=0;points=[];" parent="CkyMMpfJ883GypdnXkTS-125" connectable="0" vertex="1">
          <mxGeometry x="0.407" y="1" relative="1" as="geometry">
            <mxPoint as="offset" />
          </mxGeometry>
        </mxCell>
        <mxCell id="CkyMMpfJ883GypdnXkTS-127" value="&lt;b&gt;MANY&lt;/b&gt;" style="text;strokeColor=none;fillColor=none;spacingLeft=4;spacingRight=4;overflow=hidden;rotatable=0;points=[[0,0.5],[1,0.5]];portConstraint=eastwest;fontSize=12;whiteSpace=wrap;html=1;" parent="1" vertex="1">
          <mxGeometry x="280" y="210" width="50" height="20" as="geometry" />
        </mxCell>
        <mxCell id="CkyMMpfJ883GypdnXkTS-128" value="&lt;b&gt;1&lt;/b&gt;" style="text;strokeColor=none;fillColor=none;spacingLeft=4;spacingRight=4;overflow=hidden;rotatable=0;points=[[0,0.5],[1,0.5]];portConstraint=eastwest;fontSize=12;whiteSpace=wrap;html=1;" parent="1" vertex="1">
          <mxGeometry x="140" width="30" height="22.5" as="geometry" />
        </mxCell>
        <mxCell id="VQHKDpOr9CqLfhCD5Qzv-2" value="" style="endArrow=none;html=1;rounded=0;exitX=0.75;exitY=1;exitDx=0;exitDy=0;entryX=0;entryY=0.5;entryDx=0;entryDy=0;" edge="1" parent="1" source="CkyMMpfJ883GypdnXkTS-13" target="VQHKDpOr9CqLfhCD5Qzv-4">
          <mxGeometry width="50" height="50" relative="1" as="geometry">
            <mxPoint x="870" y="120" as="sourcePoint" />
            <mxPoint x="640.4822738995695" y="88.59494632270548" as="targetPoint" />
          </mxGeometry>
        </mxCell>
        <mxCell id="VQHKDpOr9CqLfhCD5Qzv-4" value="&lt;div&gt;‘UserID&lt;/div&gt;" style="ellipse;whiteSpace=wrap;html=1;align=center;" vertex="1" parent="1">
          <mxGeometry x="650" y="60" width="100" height="40" as="geometry" />
        </mxCell>
        <mxCell id="VQHKDpOr9CqLfhCD5Qzv-5" value="&lt;font style=&quot;font-size: 18px;&quot;&gt;User&lt;/font&gt;" style="rounded=0;whiteSpace=wrap;html=1;" vertex="1" parent="1">
          <mxGeometry x="230" y="525" width="120" height="60" as="geometry" />
        </mxCell>
        <mxCell id="VQHKDpOr9CqLfhCD5Qzv-7" value="" style="endArrow=none;html=1;rounded=0;exitX=1;exitY=0.25;exitDx=0;exitDy=0;" edge="1" parent="1" source="VQHKDpOr9CqLfhCD5Qzv-5" target="VQHKDpOr9CqLfhCD5Qzv-8">
          <mxGeometry width="50" height="50" relative="1" as="geometry">
            <mxPoint x="670" y="290" as="sourcePoint" />
            <mxPoint x="380" y="480" as="targetPoint" />
          </mxGeometry>
        </mxCell>
        <mxCell id="VQHKDpOr9CqLfhCD5Qzv-8" value="&lt;u&gt;&lt;font style=&quot;font-size: 14px;&quot;&gt;UserID&lt;/font&gt;&lt;/u&gt;" style="ellipse;whiteSpace=wrap;html=1;" vertex="1" parent="1">
          <mxGeometry x="370" y="460" width="110" height="50" as="geometry" />
        </mxCell>
        <mxCell id="VQHKDpOr9CqLfhCD5Qzv-9" value="&lt;font style=&quot;font-size: 14px;&quot;&gt;UserName&lt;/font&gt;" style="ellipse;whiteSpace=wrap;html=1;" vertex="1" parent="1">
          <mxGeometry x="110" y="460" width="110" height="50" as="geometry" />
        </mxCell>
        <mxCell id="VQHKDpOr9CqLfhCD5Qzv-10" value="" style="endArrow=none;html=1;rounded=0;exitX=0;exitY=0.25;exitDx=0;exitDy=0;" edge="1" parent="1" source="VQHKDpOr9CqLfhCD5Qzv-5" target="VQHKDpOr9CqLfhCD5Qzv-9">
          <mxGeometry width="50" height="50" relative="1" as="geometry">
            <mxPoint x="670" y="290" as="sourcePoint" />
            <mxPoint x="720" y="240" as="targetPoint" />
          </mxGeometry>
        </mxCell>
        <mxCell id="VQHKDpOr9CqLfhCD5Qzv-11" value="&lt;u&gt;&lt;font style=&quot;font-size: 14px;&quot;&gt;Role&lt;/font&gt;&lt;/u&gt;" style="ellipse;whiteSpace=wrap;html=1;" vertex="1" parent="1">
          <mxGeometry x="235" y="425" width="110" height="50" as="geometry" />
        </mxCell>
        <mxCell id="VQHKDpOr9CqLfhCD5Qzv-12" value="" style="endArrow=none;html=1;rounded=0;exitX=0.5;exitY=0;exitDx=0;exitDy=0;entryX=0.5;entryY=1;entryDx=0;entryDy=0;" edge="1" parent="1" source="VQHKDpOr9CqLfhCD5Qzv-5" target="VQHKDpOr9CqLfhCD5Qzv-11">
          <mxGeometry width="50" height="50" relative="1" as="geometry">
            <mxPoint x="670" y="290" as="sourcePoint" />
            <mxPoint x="720" y="240" as="targetPoint" />
          </mxGeometry>
        </mxCell>
        <mxCell id="VQHKDpOr9CqLfhCD5Qzv-15" value="" style="edgeStyle=entityRelationEdgeStyle;fontSize=12;html=1;endArrow=ERzeroToMany;endFill=1;rounded=0;exitX=0;exitY=0.75;exitDx=0;exitDy=0;entryX=1;entryY=0.5;entryDx=0;entryDy=0;" edge="1" parent="1" source="VQHKDpOr9CqLfhCD5Qzv-5" target="CkyMMpfJ883GypdnXkTS-10">
          <mxGeometry width="100" height="100" relative="1" as="geometry">
            <mxPoint x="230" y="553" as="sourcePoint" />
            <mxPoint x="-140" y="233" as="targetPoint" />
            <Array as="points">
              <mxPoint x="355" y="243" />
              <mxPoint x="30" y="423" />
              <mxPoint x="505" y="513" />
              <mxPoint x="190" y="523" />
              <mxPoint x="-140" y="250" />
              <mxPoint x="225" y="483" />
              <mxPoint x="150" y="293" />
              <mxPoint x="195" y="463" />
              <mxPoint x="265" y="323" />
              <mxPoint x="165" y="303" />
              <mxPoint x="220" y="523" />
            </Array>
          </mxGeometry>
        </mxCell>
      </root>
    </mxGraphModel>
  </diagram>
</mxfile>
